<?xml version="1.0" encoding="UTF-8"?><svg id="Layer_2" xmlns="http://www.w3.org/2000/svg" viewBox="0 0 791.602607999999236 99.094728940444838"><defs><style>.cls-1{stroke-width:0px;}</style></defs><g id="Layer_1-2"><path class="cls-1" d="m68.528761132092768,0l-26.044068841893932,39.04349091057702L16.449695881399748,0H0v84.969522041494201h84.96952204149602V0h-16.440760909403252ZM16.584820150649648,68.393636862860149V29.566372275277899l25.890937167519041,38.827264587582249h-25.890937167519041Zm51.808816712201406,0h-25.908944572652217l25.908944572652217-38.827264587582249v38.827264587582249Z"/><path class="cls-1" d="m197.904507847330933,60.300838043307522l-.95490380782303-36.106530481747541c-.296406083086367-9.645103207929424.282447901916385-10.223136123449876,8.67706228836505-11.003973201075496v-2.017367717886373h-15.914789774373276l-21.913523411632013,48.253432402116232-21.81992149070993-48.253432402116232h-15.537918882002486v2.017367717886373c8.596597479128832.874438998602272,9.269053385074585,1.73574088548412,8.300191396023365,14.865462976054914l-1.344911811898783,19.787774522121254c-.76687889643199,10.22395719292399-1.264447002660745,14.569056892974913-1.936902908626507,18.053675775603551-.673276975460794,3.860668705523494-2.313773800981835,5.300003507922156-8.004606382410202,5.878857492887619v2.031325899099102h21.524336477054021v-2.031325899099102c-6.376425599095455-.578853984965463-8.394614386465037-1.345732881392905-8.596597479090633-6.175263575978533-.09442299048078-4.048693616941819-.09442299048078-8.878224311518352.29640608308182-16.505959801559584l1.34491181192061-27.119924998574788h.29558501360043l21.524336477070392,51.441645201632127h1.533757792820325l23.070410312142485-52.692955092561533h.3900080040803l.282447901892738,39.577191183198011c.094422990452586,10.129534202451396-.282447901892738,10.708388187418677-7.909362322481684,11.568869004830049v1.937723978113354h25.38418411310704v-1.937723978113354c-8.111345415105461-.860480817411371-8.488216307448056-1.439334802378653-8.690199400110032-11.568869004830049Z"/><path class="cls-1" d="m243.547760365372596,68.980363540129474c-1.735740885451378,0-3.377058780455627-1.452471914093621-3.377058780455627-5.596409591016709v-17.958431715671395c0-5.206401586901848-.860480817376811-9.161493282887022-4.345099700064566-12.05329999935384-2.111790708319859-1.641317895016982-4.815572513346524-2.515756893604703-7.815760401469561-2.515756893604703-5.017555606014866.968040919577106-11.48840419557564,4.627547601958213-14.474633902514142,6.753296491458968-1.82934280642894,1.35804892365195-2.986229706926679,2.514935824132408-2.986229706926679,3.766245715080004,0,2.21935081052834,2.501798712386517,4.04951468641957,4.345099700042738,4.04951468641957,1.344911811915154,0,2.313773800941817-.673276975443514,2.703781805022118-2.40819679141714.766878896437447-3.080652697379264,1.627359713819715-5.2064015869164,2.78424661430563-6.470848589578964.968861989032121-1.156886900465906,2.421333903118466-1.829342806440764,4.157074788602586-1.829342806440764,4.62754760196367,0,7.721337411022432,3.766245715067271,7.721337411022432,11.098396191497159v2.313773800986382c-2.313773800942727,1.842479918186655-9.268232315569549,4.250676709580148-14.770218916090016,6.187579618204836-5.017555605996677,1.735740885475025-7.332150476466268,4.533945680952456-7.332150476466268,9.161493282883384,0,5.596409591007614,4.533945680976103,11.488404195579278,11.582827186046416,11.488404195579278,2.31377380097183,0,7.143304495553821-3.672643794076066,10.708388187445053-6.080840585489568.484430994509239,1.546894904553483,1.156886900485006,2.987050776411706,2.326910912694984,4.143937676863061,1.04932679828471,1.062463910058796,2.986229706913036,1.936902908626507,4.721970592385333,1.936902908626507l8.11216648460686-5.017555605987582-.78083707762562-1.937723978095164c-.860480817376811.578853984961825-2.017367717899106.968861989056677-3.28181472056167.968861989056677Zm-11.287242172435072-2.609358814603183c-1.734919815979083,1.734919815991816-4.533124611443782,2.999366818639828-6.752475421966665,2.999366818639828-3.00018788811758,0-6.658873501018206-2.515756893575599-6.658873501018206-7.627735490050327,0-3.578220803608929,2.017367717901834-5.407563610060606,5.501986600532291-7.048881505064855,2.017367717861816-1.06246391005152,6.080019516015454-2.891806716472274,7.90936232245258-3.955091695985175v15.632341872460529Z"/><path class="cls-1" d="m267.100138463621988,48.52095418152021c-4.157074788610771-1.830163875929429-7.816581471011887-4.157074788607133-7.816581471011887-8.489037376944907,0-3.860668705490752,2.502619781893372-6.564450510561073,6.080840585518672-6.564450510561073,4.815572513380175,0,8.300191396012451,4.143116607412594,10.129534202482319,9.551501286960047l1.735740885460473-.484430994476497c-.188845980910628-2.125748889580791-1.156886900492282-7.910183391973987-1.923765796889711-10.035932281509304-1.937723978122449-.874438998602272-4.439522690494414-1.641317895026077-8.407751498216385-1.641317895026077-8.771485278839464,0-14.474633902511414,5.690832581452923-14.474633902511414,12.551689175104912,0,7.236906416495913,6.282002608671974,10.707567117960934,11.676429107026706,13.223324011563818,5.017555606010319,2.408196791409864,7.533312499605017,4.81639358283428,7.533312499605017,8.972647301961842,0,4.143937676906717-2.986229706923041,6.753296491469882-6.564450510552888,6.753296491469882-5.785255571922789,0-10.331517295112462-5.986417595044259-12.161681171014607-12.255283091999445l-1.82934280646532.390008004069387c0,3.565083691915788.954903807863047,10.130355271950975,1.546894904572582,11.475267083891595,1.641317895012435,1.264447002646193,5.973280483323833,3.000187888092114,10.802811177863077,3.000187888092114,7.533312499630483,0,15.631520803040985-4.547082792665606,15.631520803040985-13.318568071474147,0-6.470027520103031-4.62754760198095-9.940688221560777-11.958877008907621-13.128901021122147Z"/><path class="cls-1" d="m305.890745082821013,30.854002132047754c-8.972647301970937,0-21.039084413079763,7.34446651869257-21.039084413079763,22.975987321657158,0,10.613965197017023,7.721337411046989,21.134328473026471,20.945482492092196,21.134328473026471,9.739526198404747,0,20.743499399439315-7.533312499603198,20.743499399439315-22.774825298523865,0-11.677250176535381-8.488216307442599-21.335490496159764-20.649897478451749-21.335490496159764Zm.968861989013021,41.500135910631798c-7.721337411006971,0-12.550868105594418-9.34951819437083-12.550868105594418-21.805963309498111,0-10.910371280084291,4.721970592436264-17.084813786557788,10.519542206535334-17.084813786557788,8.112166484595036,0,12.255283091994897,9.269053385078223,12.255283091994897,20.851059501625059,0,13.896600986996418-4.627547601922743,18.03971759443084-10.223957192935814,18.03971759443084Z"/><path class="cls-1" d="m371.710959057549189,64.255929739296334v-18.927293704722615c0-9.067070292487188-4.533124611481981-14.47545497200008-12.160860101521394-14.47545497200008-2.703781805042127,0-4.829530694581081,1.063284979489254-7.627735490070336,2.798204795466518-2.313773800980925,1.546894904566216-4.53312461150017,3.188212799577741-6.470027520093936,4.641505783141838v-7.722158480491998c-4.533945680959732,1.923765796893349-9.255916273361436,3.08065269735016-13.601015973388712,3.861489774966685v1.64049682552286c5.018376675472609,1.156886900524114,5.501986600505916,1.547715974053062,5.501986600505916,7.627735490068517v20.353491395389938c0,6.766433603184851-.578032915483163,7.237727486008225-6.860035524157865,7.923320503668947v1.830163875943981h20.851059501637792v-1.830163875943981c-5.313961689097596-.578032915482254-5.89199460459713-1.062463910027873-5.89199460459713-7.721337411010609v-23.366816395278875c2.70378180501848-2.313773800922718,6.376425599082722-4.533124611438325,9.752663310087883-4.533124611438325,6.174442506508058,0,8.394614386482317,4.250676709560139,8.394614386482317,10.81512722010666v16.210374787977344c0,7.331329406988516-.673276975424415,8.01774349416155-6.175263575957615,8.595776409643804v1.830163875943981h20.071043493491743v-1.830163875943981c-5.300003507883957-.685593017660722-5.784434502418662-1.062463910027873-5.784434502418662-7.721337411010609Z"/><path class="cls-1" d="m422.75356449080482,37.705005891906694c-7.721337411003333-4.143116607439879-12.160860101525941-7.425752397432007-12.160860101525941-14.474633902515052,0-5.596409590998519,3.470660701462293-10.802811177914919,10.519542206558981-10.802811177914919,8.112166484550471,0,11.393981205081218,6.658873500999107,13.129722090566247,12.927738997994311l2.031325899094554-.484430994554714c-.686414087172125-5.595588521493482-1.264447002660745-9.456257227051537-1.641317895010616-12.927738997961569-2.905764897689551-.873617929122702-6.955279584116397-2.124927820043013-12.066437111113373-2.124927820043013-12.349706082435659,0-19.788595591583544,7.910183391950341-19.788595591583544,17.272838697974294,0,10.613965197020661,9.457078296513828,15.537097812548382,15.833503895644753,19.116139685662347,7.12934631432563,3.95427062649469,12.254462022510779,7.519354318399564,12.254462022510779,14.474633902484129,0,6.954458514645012-4.250676709613799,11.676429107030344-11.393981205130331,11.676429107030344-9.941509291050352,0-14.770218916123667-9.941509291040347-16.303976708978553-16.115951797513844l-2.031325899026342.672455905978495c.390008004016636,3.860668705507123,1.734919815963622,13.03529910013458,2.408196791400769,14.864641906573524,1.062463910023325.578853984961825,2.609358814571351,1.251309890936682,5.125115708176963,2.031325899053627,2.313773800981835.673276975445333,5.394426498352004,1.440155871858224,9.160672213416547,1.440155871858224,12.834137076992192,0,21.241888575178564-8.30019139599608,21.241888575178564-18.241700687036428,0-10.519542206535334-8.502174488640776-15.147910877964023-16.317934890179458-19.304164597069757Z"/><path class="cls-1" d="m482.40015702857454,63.676254684783999V31.336790987608765c-5.219538698672295.968040919540726-10.237094304650782,1.452471914100897-15.16104798966262,1.734919815982721v1.641317894996973c6.565271580013359,1.062463910040606,7.048881505037571,1.453292983571373,7.048881505037571,6.658873501015478v23.46123938569508c-2.986229706919403,2.986229706933955-6.564450510553797,4.345099700050923-9.833128119330468,4.345099700050923-4.157074788617138,0-8.017743494163369-2.313773800995477-8.017743494163369-10.519542206548067v-13.519730094645638c0-7.035744393384448.094422990467137-11.00397320105003.390008004093033-13.802177996547471-4.829530694581081.874438998584083-9.470215408219701,1.452471914100897-14.004161089195804,1.734919815982721v1.641317894996973c5.219538698643191,1.062463910040606,5.60954670269075,1.546894904560759,5.60954670269075,6.564450510562892v19.883018582062505c0,9.752663310096978,5.111978596472909,13.802177996540195,11.677250176528105,13.802177996540195,2.501798712367417,0,4.721970592386242-.861301886878209,7.519354318376827-2.501798712384698,2.610179884060017-1.641317895027896,4.641505783144567-3.282635790019413,6.658873501000926-4.923953685023662v6.846898412404698l.578853984998204.578853985003661c4.829530694584719-1.533757792829419,9.75266331014609-2.798204795491984,14.192186000632319-3.470660701434099v-1.829342806433488l-2.408196791430782-.201983092661976c-3.578220803628938-.376870892345323-4.250676709574691-1.062463910004226-4.250676709574691-5.78443450244049Z"/><path class="cls-1" d="m517.818631284195362,30.861391757372985c-1.156886900485915,0-2.703781805060316.376870892374427-4.82870962510242,1.641317894998792l-8.300191396017908,4.923953685050947v-7.533312499595922c-4.7359287736017,1.82934280642985-10.130355271958251,3.470660701421366-14.098584079625653,4.250676709549225v1.641317895029715c5.501986600507735.860480817382268,6.093977697194532,1.156886900502286,6.093977697194532,7.331329406983059v44.782771700634839c0,6.565271580033368-.874438998584083,7.049702574546245-6.860856593626522,7.722158480526559v1.829342806418936h22.774825298542055v-1.829342806418936c-7.142483426068793-.672455905980314-7.909362322484412-1.156886900493191-7.909362322484412-8.879045381017932v-13.411348922989418c1.250488821466206.766057826947872,3.766245715041805,1.532936723346211,6.362467417936386,1.62735971380971,12.362843194158813-2.501798712415621,23.555662376124019-11.86527508792642,23.555662376124019-26.057461088545097,0-9.160672213416547-6.175263575943973-18.039717594434478-16.789228772940078-18.039717594434478Zm-4.156253719127562,39.765216094645439c-3.188212799575012,0-6.8477194819543-1.452471914089983-8.972647301992765-3.671822724611047v-26.931900087134636c2.51493582412968-1.829342806437126,5.891994604617139-3.659506682373831,8.878224311518352-3.659506682373831,6.658873501000926,0,12.550868105581685,5.78443450244049,12.550868105581685,16.398399699397487,0,10.721525299168206-4.923132615519535,17.864829794722027-12.456445115107272,17.864829794722027Z"/><path class="cls-1" d="m565.590095900215601,30.861391757372985c-1.156886900505015,0-2.704602874548982.376870892374427-4.829530694581081,1.641317894998792l-8.300191396031551,4.923953685050947v-7.533312499595922c-4.735107704092115,1.82934280642985-10.129534202440482,3.470660701421366-14.09858407964748,4.250676709549225v1.641317895029715c5.501986600533201.860480817382268,6.093977697242735,1.156886900502286,6.093977697242735,7.331329406983059v44.782771700634839c0,6.565271580033368-.874438998607729,7.049702574546245-6.860035524156046,7.722158480526559v1.829342806418936h22.774825298518408v-1.829342806418936c-7.143304495552911-.672455905980314-7.910183391957617-1.156886900493191-7.910183391957617-8.879045381017932v-13.411348922989418c1.251309890951234.766057826947872,3.766245715044533,1.532936723346211,6.363288487416867,1.62735971380971,12.362022124688337-2.501798712415621,23.554841306646267-11.86527508792642,23.554841306646267-26.057461088545097,0-9.160672213416547-6.174442506472587-18.039717594434478-16.788407703450503-18.039717594434478Zm-4.157074788635327,39.765216094645439c-3.188212799559551,0-6.846898412441988-1.452471914089983-8.972647301977304-3.671822724611047v-26.931900087134636c2.515756893612888-1.829342806437126,5.891994604596221-3.659506682373831,8.878224311513804-3.659506682373831,6.658873501014568,0,12.551689175101274,5.78443450244049,12.551689175101274,16.398399699397487,0,10.721525299168206-4.923953685029119,17.864829794722027-12.457266184637774,17.864829794722027Z"/><path class="cls-1" d="m600.221985591806515,64.053946646637996V4.796541043486286c-3.470660701438646,1.250488821473482-9.739526198377462,2.798204795497441-14.367073800311118,3.376237711010617v1.641317895007887c5.878036423419871.578032915505901,6.362467417898188.874438998600453,6.362467417898188,7.438889509136061v46.800960487997145c0,6.658873501013659-.766878896355593,7.237727486008225-6.658873501004564,7.923320503668947v1.830163875943981h21.335490496180682v-1.830163875943981c-5.89199460457894-.578032915482254-6.672010612763188-1.156886900484096-6.672010612763188-7.923320503668947Z"/><path class="cls-1" d="m634.976214636329132,33.85090574223068c5.501986600514101.766878896431081,6.174442506498053,1.936902908604679,5.017555606003043,5.69001151196062-1.829342806427121,5.798392683625934-5.891994604593492,17.380398800181865-8.502174488643504,23.838110278034947l-8.582639297932474-24.026135189464185c-1.344911811916063-3.955091695977899-.874438998601363-4.735107704100301,3.659506682355641-5.501986600531382v-1.829342806453496h-19.681035489383248v1.829342806453496c5.017555605983034.766878896431081,5.784434502385011,1.936902908604679,7.910183391929422,7.331329406966688,2.703781805042127,6.658873501010021,7.142483426071522,18.537285700658686,11.191998112477449,30.214535877157687.578853984976377,1.640496825533774.780016008136045,2.797383726039698.296406083084548,4.250676709574691-.484430994521063,1.344911811931524-1.251309890916673,3.376237710996065-2.892627785945479,6.551313398878847-2.408196791412593,4.54708279264014-4.345099700035462,6.954458514583166-7.533312499580461,8.878224311476515-1.546894904578949,1.063284979511081-2.502619781901558,2.03132589908455-2.502619781901558,3.390195892236079,0,2.408196791402588,2.798204795501988,4.627547601923652,5.206401586926404,4.627547601923652,1.345732881396543,0,2.515756893586513-.484430994541981,3.000187888121218-2.408196791426235,1.439334802373196-5.219538698644101,3.564262622410752-11.097575122021226,9.927551109848537-26.446648023123998,6.470848589558045-15.927926886079149,9.362655306026682-23.838110278038585,11.878412199624108-29.34009687859907,2.610179884055469-5.501986600511373,3.282635790033055-6.188400687686226,8.300191396034279-7.048881505064855v-1.829342806453496h-16.693984713017926v1.829342806453496Z"/><path class="cls-1" d="m706.862489945887319,72.352495903700401c-14.851504794845823,0-24.792193016391138-12.927738997965207-24.792193016391138-30.980593704096464,0-14.851504794860375,8.300191396018818-28.761242893569943,24.214160100876143-28.761242893569943,9.659061389149429,0,16.317934890163087,4.062651798156367,18.819733602584165,14.286608991091271l2.031325899059993-.578853985003661c-.578032915521362-4.721149522920314-1.062463910001497-8.676241218881842-1.829342806441673-14.084625898425656-2.515756893604703-.390008004089395-9.080207404154862-2.421333903181221-16.694805782516596-2.421333903181221-21.819921490666275,0-36.872588308668128,13.317747002030956-36.872588308668128,33.402748676715419,0,15.443495891571729,10.42511921608002,32.043057614124336,34.545677395982239,32.043057614124336,6.658873501014568,0,14.582194004678968-1.936902908604679,17.178415707568092-2.514935824088752,1.748877997152704-3.28263579004124,4.062651798159095-10.223957192938542,5.313961689079406-14.475454971998261l-2.031325899067269-.672455905973038c-4.533945680947909,8.879045381007018-10.129534202453215,14.757081804405971-19.883018582065233,14.757081804405971Z"/><path class="cls-1" d="m755.797410018230948,30.854002132047754c-8.972647301960023,0-21.039905482513859,7.34446651869257-21.039905482513859,22.975987321657158,0,10.613965197017023,7.722158480521102,21.134328473026471,20.94548249208674,21.134328473026471,9.739526198397471,0,20.743499399438406-7.533312499603198,20.743499399438406-22.774825298523865,0-11.677250176535381-8.488216307445327-21.335490496159764-20.649076409011286-21.335490496159764Zm.96886198908669,41.500135910631798c-7.722158480522921,0-12.551689175102183-9.34951819437083-12.551689175102183-21.805963309498111,0-10.910371280084291,4.721970592374419-17.084813786557788,10.520363276012176-17.084813786557788,8.111345415110009,0,12.254462022510779,9.269053385078223,12.254462022510779,20.851059501625059,0,13.896600986996418-4.627547601946389,18.03971759443084-10.223136123420772,18.03971759443084Z"/><path class="cls-1" d="m786.476671222349978,64.439028233829958c-2.986229706956692,0-5.111978596458357,2.326910912670428-5.111978596458357,5.219538698613178,0,3.188212799570465,2.125748889501665,5.313140619608021,5.111978596458357,5.313140619608021,2.892627785952754,0,5.125936777649258-2.124927820037556,5.125936777649258-5.313140619608021,0-2.89262778594275-2.233308991696504-5.219538698613178-5.125936777649258-5.219538698613178Z"/></g></svg>